# xmcd CD database file
#
# Track frame offsets:
#	150
#	19062
#	68918
#	99271
#	139744
#	174902
#	197627
#	213205
#	248711
#	260894
#	289144
#
# Disc length: 4361 seconds
#
# Revision: 1
# Processed by: cddbd v1.5.1PL2 Copyright (c) Steve Scherf et al.
# Submitted via: CDex 1.51
#
DISCID=9c11070b
DTITLE=Various Artist - Blue Break Beats
DYEAR=1992
DGENRE=Blues
TTITLE0=Grooving with Mr. G./Richard Groove Holmes
TTITLE1=Sookie Sookie/Grant Green
TTITLE2=Who's Making Love/Lou Donaldson
TTITLE3=Weasil/Donald Byrd
TTITLE4=Harlem River Drive/Bobbi Humphrey
TTITLE5=Blue Juice/Jimmy McGriff
TTITLE6=The Final Comedown/Grant Green
TTITLE7=Turtle Walk/Lou Donaldson
TTITLE8=Your Love Is Too Much/The Three Sounds
TTITLE9=Black Jack/Donald Byrd
TTITLE10=Olilloqui Valley/Herbie Hancock
EXTD=YEAR: 1992
EXTT0=
EXTT1=
EXTT2=
EXTT3=
EXTT4=
EXTT5=
EXTT6=
EXTT7=
EXTT8=
EXTT9=
EXTT10=
PLAYORDER=
